<?xml version="1.0" standalone="no"?><!DOCTYPE svg PUBLIC "-//W3C//DTD SVG 1.1//EN" "http://www.w3.org/Graphics/SVG/1.1/DTD/svg11.dtd"><svg t="1553566462290" class="icon" style="" viewBox="0 0 1024 1024" version="1.1" xmlns="http://www.w3.org/2000/svg" p-id="598" xmlns:xlink="http://www.w3.org/1999/xlink" width="200" height="200"><defs><style type="text/css">html, * { user-select: text !important; }
</style></defs><path d="M1003.514745 462.926231L560.898361 20.309847a69.276119 69.276119 0 0 0-98.010351 0L20.339878 462.926231A68.661848 68.661848 0 0 0 0.000683 511.931406c0 18.496382 7.166495 35.900728 20.270943 49.005176l442.548131 442.616384a69.276119 69.276119 0 0 0 98.078604 0l442.548131-442.548132A68.934857 68.934857 0 0 0 1023.785688 511.931406a68.934857 68.934857 0 0 0-20.270943-49.005175zM639.866311 750.814574C622.803227 750.814574 546.019352 682.562241 546.019352 682.562241s-67.84282 102.241996-67.84282 239.633943l-374.022788-375.319583C271.167204 500.942781 409.514685 409.552906 409.514685 409.552906 341.262351 409.552906 341.262351 273.048239 341.262351 273.048239h68.252334c34.126167 0 68.252334 68.252334 68.252333 68.252333v-34.126167A102.378501 102.378501 0 0 1 580.145519 204.795905h68.252334l67.979324 68.252334H580.145519a34.126167 34.126167 0 0 0-34.126167 34.126166V341.300572s48.663914-8.053775 93.846959 59.720792c40.132372 60.198558 111.046547 165.2389 145.036209 221.820085 18.018616 30.031027 7.985523 49.892456-6.620476 66.136511l-19.86143 19.793177c-18.291625 17.063083-101.695977 42.043438-118.554303 42.043437z" fill="#1296db" p-id="599"></path></svg>